<?xml version="1.0" standalone="no"?>
<!DOCTYPE svg PUBLIC "-//W3C//DTD SVG 20010904//EN"
 "http://www.w3.org/TR/2001/REC-SVG-20010904/DTD/svg10.dtd">
<svg version="1.0" xmlns="http://www.w3.org/2000/svg"
 width="512.000000pt" height="512.000000pt" viewBox="0 0 512.000000 512.000000"
 preserveAspectRatio="xMidYMid meet">

<g transform="translate(0.000000,512.000000) scale(0.100000,-0.100000)"
fill="#6afbff" stroke="none">
<path d="M4275 5107 c-22 -8 -51 -19 -65 -26 -14 -7 -323 -311 -687 -674
l-662 -661 -3 275 -3 274 -28 57 c-32 64 -80 111 -146 142 -44 20 -61 21 -421
21 l-375 0 -57 -28 c-64 -32 -111 -80 -142 -146 -19 -41 -21 -68 -24 -243 l-3
-197 -47 7 c-97 15 -292 6 -386 -16 -364 -90 -645 -368 -736 -728 l-10 -42
-128 -4 c-102 -3 -136 -8 -173 -24 -66 -31 -114 -78 -146 -142 -28 -57 -28
-58 -28 -262 0 -187 2 -209 21 -251 30 -64 77 -114 137 -143 l51 -26 182
-1028 c100 -565 188 -1043 197 -1063 22 -53 83 -117 141 -147 l51 -27 1775 0
1775 0 51 27 c58 30 119 94 141 147 9 20 97 498 197 1063 l182 1028 51 26 c60
29 107 79 137 143 19 42 21 64 21 251 0 204 0 205 -28 262 -32 64 -80 111
-146 142 -42 19 -67 21 -263 24 l-217 3 -3 287 -3 287 -28 57 c-32 64 -80 111
-146 142 -40 18 -69 21 -220 24 l-174 4 365 366 c408 410 403 404 403 537 -1
118 -58 211 -161 261 -64 31 -159 40 -219 21z m134 -201 c47 -25 63 -84 37
-134 -8 -15 -423 -435 -923 -934 -618 -617 -917 -909 -935 -914 -77 -18 -142
47 -124 124 5 18 295 316 909 931 496 496 916 912 932 922 36 23 66 24 104 5z
m-1800 -600 c49 -26 51 -41 51 -414 l0 -347 -133 -133 -133 -133 -29 63 c-49
102 -121 205 -200 284 -72 72 -236 189 -282 200 -23 6 -23 7 -23 213 1 220 5
241 51 267 36 20 659 20 698 0z m-959 -609 c211 -58 377 -178 484 -350 40 -64
96 -191 96 -217 0 -7 -276 -10 -771 -10 l-771 0 7 33 c12 58 83 192 139 264
115 148 279 247 476 289 80 17 262 12 340 -9z m2559 9 c48 -25 51 -46 51 -326
l0 -260 -587 0 -588 0 300 300 300 300 248 0 c195 0 254 -3 276 -14z m-1904
-838 c75 -131 239 -181 380 -119 27 12 80 53 124 96 l77 75 977 0 c735 0 983
-3 1002 -12 47 -21 55 -53 55 -218 0 -165 -8 -197 -55 -218 -19 -9 -261 -12
-976 -12 -1032 0 -991 2 -1017 -55 -15 -33 -15 -57 0 -90 26 -57 -9 -55 948
-55 l882 0 -6 -27 c-3 -16 -82 -464 -177 -998 -99 -562 -177 -980 -185 -993
-8 -13 -26 -27 -40 -32 -34 -13 -3434 -13 -3468 0 -14 5 -32 19 -40 32 -9 14
-85 423 -186 993 -94 534 -173 982 -176 998 l-6 27 882 0 c957 0 922 -2 948
55 15 33 15 57 0 90 -26 57 15 55 -1018 55 -1033 0 -992 -2 -1018 55 -17 37
-16 322 2 354 29 52 -12 50 1061 50 l1000 0 30 -51z"/>
<path d="M2511 2446 c-87 -48 -50 -186 49 -186 51 0 100 49 100 99 0 75 -83
124 -149 87z"/>
<path d="M1311 1846 c-51 -28 -50 -22 -51 -613 0 -407 3 -559 12 -578 13 -29
55 -55 88 -55 33 0 75 26 88 55 17 37 17 1113 0 1150 -22 48 -88 68 -137 41z"/>
<path d="M1911 1846 c-51 -28 -50 -22 -51 -613 0 -407 3 -559 12 -578 13 -29
55 -55 88 -55 33 0 75 26 88 55 17 37 17 1113 0 1150 -22 48 -88 68 -137 41z"/>
<path d="M2511 1846 c-51 -28 -50 -22 -51 -613 0 -407 3 -559 12 -578 13 -29
55 -55 88 -55 33 0 75 26 88 55 17 37 17 1113 0 1150 -22 48 -88 68 -137 41z"/>
<path d="M3111 1846 c-51 -28 -50 -22 -51 -613 0 -407 3 -559 12 -578 13 -29
55 -55 88 -55 33 0 75 26 88 55 9 19 12 171 12 575 0 404 -3 556 -12 575 -22
48 -88 68 -137 41z"/>
<path d="M3711 1846 c-51 -28 -50 -22 -51 -613 0 -407 3 -559 12 -578 13 -29
55 -55 88 -55 33 0 75 26 88 55 9 19 12 171 12 575 0 404 -3 556 -12 575 -22
48 -88 68 -137 41z"/>
</g>
</svg>
