<?xml version="1.0" encoding="iso-8859-1"?>
<!-- Uploaded to: SVG Repo, www.svgrepo.com, Generator: SVG Repo Mixer Tools -->
<svg fill="#397ca6" height="800px" width="800px" version="1.1" id="Layer_1" xmlns="http://www.w3.org/2000/svg" xmlns:xlink="http://www.w3.org/1999/xlink" 
	 viewBox="0 0 512 512" xml:space="preserve">
<g>
	<g>
		<path d="M503.581,447.667h-28.396V349.17c0-22.047-17.936-39.983-39.983-39.983h-12.327V206.495
			c0-19.733-16.055-35.788-35.788-35.788h-99.762V88.151c0-4.649-3.769-8.419-8.418-8.419h-14.489V67.156
			c11.134-3.569,19.218-14.017,19.218-26.321c0-12.899-16.416-31.709-21.447-37.166c-1.594-1.73-3.838-2.713-6.189-2.713
			c-2.352,0-4.595,0.983-6.189,2.713c-5.031,5.457-21.447,24.267-21.447,37.166c0,12.303,8.084,22.751,19.218,26.321v12.577h-14.489
			c-4.649,0-8.419,3.769-8.419,8.419v82.556h-99.762c-19.733,0-35.788,16.055-35.788,35.788v74.069c0,4.649,3.769,8.419,8.418,8.419
			c4.649,0,8.419-3.769,8.419-8.419v-74.069c0-10.449,8.502-18.951,18.951-18.951h262.175c10.449,0,18.951,8.502,18.951,18.951
			v102.692H97.544H76.797c-22.048,0-39.983,17.936-39.983,39.983v69.082c0,4.649,3.769,8.419,8.418,8.419
			c4.649,0,8.419-3.769,8.419-8.419v-69.082c0-12.764,10.383-23.146,23.146-23.146h20.745h316.913h20.745
			c12.764,0,23.146,10.383,23.146,23.146v98.497H45.232H8.419c-4.649,0-8.419,3.769-8.419,8.419
			c0,30.303,24.654,54.957,54.957,54.957h402.086c30.303,0,54.957-24.654,54.957-54.957
			C512,451.436,508.231,447.667,503.581,447.667z M245.201,40.834c0-2.897,4.664-10.666,10.799-18.466
			c6.135,7.8,10.799,15.569,10.799,18.466c0,5.955-4.845,10.799-10.799,10.799C250.045,51.633,245.201,46.789,245.201,40.834z
			 M270.488,170.707h-28.977V96.569h28.977V170.707z M457.043,494.206H54.957c-18.128,0-33.341-12.719-37.183-29.702h27.459h421.534
			h27.459C490.384,481.487,475.171,494.206,457.043,494.206z"/>
	</g>
</g>
<g>
	<g>
		<path d="M377.719,212.133c-12.217-0.199-20.606,8.066-27.354,14.721c-6.11,6.024-10.159,9.661-14.526,9.543
			c-4.103-0.12-7.237-3.674-12.009-9.461c-5.593-6.783-12.556-15.224-24.498-15.574c-11.793-0.351-19.563,7.357-26.415,14.151
			c-6.339,6.286-10.567,10.102-15.818,10.108c-0.003,0-0.006,0-0.009,0c-5.18,0-9.276-3.824-15.401-10.121
			c-6.456-6.636-14.481-14.884-26.671-14.884c-0.076,0-0.155,0-0.231,0.001c-12.725,0.109-20.916,9.077-27.498,16.284
			c-5.897,6.458-9.809,10.382-14.351,10.382c-0.008,0-0.015,0-0.022,0c-4.549-0.012-8.369-3.943-14.121-10.413
			c-6.26-7.043-14.043-15.802-26.151-15.802c-0.046,0-0.093,0-0.14,0c-4.649,0.026-8.397,3.816-8.371,8.466
			c0.026,4.634,3.789,8.371,8.417,8.371c0.029,0.001,0.058,0.001,0.088,0.001c4.245,0,7.964,3.839,13.574,10.15
			c6.348,7.142,14.246,16.03,26.659,16.066c0.024,0,0.047,0,0.072,0c12.292,0,20.325-8.794,26.781-15.864
			c6.112-6.692,10.186-10.759,15.209-10.803c4.884-0.019,8.76,3.693,14.69,9.788c6.597,6.78,14.804,15.216,27.468,15.216
			c0.008,0,0.018,0,0.026,0c12.555-0.011,20.93-8.316,27.659-14.989c5.804-5.755,9.664-9.279,13.849-9.279
			c0.073,0,0.146,0.001,0.218,0.002c4.098,0.12,7.23,3.672,12,9.457c5.596,6.784,12.558,15.227,24.505,15.578
			c11.925,0.378,20.186-7.82,26.843-14.384c6.288-6.201,10.445-9.985,15.235-9.874c4.69,0.064,8.485-3.62,8.566-8.269
			C386.069,216.049,382.369,212.215,377.719,212.133z"/>
	</g>
</g>
<g>
	<g>
		<path d="M434.651,351.513c-12.574-0.391-20.936,7.93-28.32,15.253c-6.085,6.033-11.341,11.248-17.799,11.29
			c-5.012-0.109-8.605-3.842-14.035-9.913c-6.203-6.931-13.922-15.558-26.936-15.787c-0.165-0.002-0.328-0.005-0.492-0.005
			c-12.762,0-21.683,8.797-28.869,15.883c-5.894,5.812-10.978,10.814-16.474,10.67c-4.831-0.141-8.364-4.136-13.728-10.64
			c-6.019-7.298-13.509-16.381-26.216-16.753c-12.563-0.391-20.937,7.93-28.32,15.253c-6.105,6.055-11.378,11.283-17.866,11.29
			c-0.003,0-0.008,0-0.011,0c-5.979,0-10.571-4.276-17.42-11.313c-6.96-7.154-15.611-16.045-28.616-16.045
			c-0.081,0-0.164,0-0.244,0.001c-13.577,0.116-22.41,9.788-29.509,17.56c-6.599,7.226-10.992,11.616-16.288,11.616
			c-0.009,0-0.018,0-0.027,0c-5.308-0.015-9.6-4.416-16.04-11.66c-6.77-7.617-15.168-17.058-28.171-17.024
			c-4.649,0.026-8.397,3.816-8.371,8.466c0.026,4.633,3.789,8.371,8.417,8.371c0.019,0.002,0.035,0.002,0.051,0.002
			c5.022-0.072,9.186,4.278,15.491,11.372c6.84,7.696,15.353,17.275,28.577,17.312c0.027,0,0.052,0,0.08,0
			c13.096-0.001,21.394-9.084,28.715-17.1c6.832-7.481,11.401-12.027,17.22-12.078c0.031,0,0.063,0,0.093,0
			c5.501,0,9.934,4.144,16.555,10.95c7.113,7.312,15.965,16.409,29.486,16.409c0.009,0,0.018,0,0.027,0
			c13.411-0.012,22.446-8.972,29.706-16.171c6.61-6.555,10.954-10.513,15.973-10.38c4.826,0.141,8.357,4.134,13.719,10.635
			c6.02,7.299,13.512,16.385,26.223,16.757c12.696,0.394,21.24-8.066,28.79-15.511c6.06-5.976,11.276-11.172,17.241-11.033
			c5.391,0.094,9.093,3.93,14.685,10.18c6.111,6.83,13.717,15.33,26.396,15.52c0.045,0,0.09,0.001,0.135,0.001
			c13.411-0.012,22.446-8.972,29.706-16.171c6.611-6.555,10.97-10.497,15.973-10.38c4.654,0.143,8.525-3.521,8.661-8.168
			C442.955,355.526,439.298,351.649,434.651,351.513z"/>
	</g>
</g>
</svg>