<?xml version="1.0" standalone="no"?>
<!DOCTYPE svg PUBLIC "-//W3C//DTD SVG 20010904//EN"
 "http://www.w3.org/TR/2001/REC-SVG-20010904/DTD/svg10.dtd">
<svg version="1.0" xmlns="http://www.w3.org/2000/svg"
 width="512.000000pt" height="512.000000pt" viewBox="0 0 512.000000 512.000000"
 preserveAspectRatio="xMidYMid meet">

<g transform="translate(0.000000,512.000000) scale(0.100000,-0.100000)"
fill="#7dac2e" stroke="none">
<path d="M2484 5110 c-67 -21 -127 -72 -161 -138 -30 -59 -33 -71 -33 -158 0
-89 -1 -94 -22 -98 -13 -3 -70 -15 -128 -26 -254 -53 -550 -184 -747 -331 -48
-36 -53 -43 -53 -78 0 -46 24 -71 68 -71 22 0 61 19 129 65 191 128 416 222
652 273 117 24 144 26 366 27 212 0 253 -3 354 -23 668 -135 1197 -601 1407
-1240 24 -72 44 -137 44 -142 0 -6 -144 -10 -409 -10 -398 0 -409 -1 -435 -21
-30 -23 -35 -72 -12 -105 14 -18 34 -19 554 -24 l540 -5 26 -24 c49 -46 42
-127 -15 -156 -42 -22 -4056 -22 -4098 0 -57 29 -64 110 -15 156 l26 24 1388
5 c1291 5 1390 6 1406 22 27 27 22 77 -10 105 l-27 23 -1260 0 -1261 0 8 33
c16 75 88 266 139 366 69 138 173 293 269 401 42 47 79 95 82 108 14 52 -38
100 -93 86 -65 -17 -301 -337 -404 -549 -58 -120 -133 -328 -145 -404 l-6 -38
-57 -6 c-139 -12 -235 -112 -236 -247 0 -51 6 -76 26 -115 28 -56 91 -109 147
-125 23 -6 212 -10 500 -10 l462 0 0 -22 c0 -13 -9 -124 -20 -248 -29 -341
-46 -404 -175 -665 -86 -174 -123 -280 -145 -417 l-13 -78 -33 0 c-18 0 -45
-5 -61 -10 -32 -13 -287 -262 -309 -302 -18 -35 -18 -101 0 -136 8 -15 183
-194 388 -399 329 -328 378 -372 411 -379 77 -14 110 6 258 155 156 155 173
186 148 264 -7 23 -13 45 -14 49 0 4 108 80 240 168 132 89 250 173 263 186
12 14 22 36 22 50 0 32 -42 74 -73 74 -14 0 -130 -72 -290 -180 -146 -99 -270
-180 -274 -180 -5 0 -127 119 -272 264 l-264 264 8 68 c18 178 53 290 151 484
130 259 154 354 184 719 12 135 23 252 26 260 6 20 79 6 132 -25 84 -49 100
-96 122 -349 28 -332 89 -517 206 -624 165 -151 378 -90 724 205 181 154 259
245 390 454 68 107 138 214 157 237 63 78 229 138 273 98 11 -10 20 -26 20
-35 0 -19 -139 -288 -225 -435 -115 -196 -557 -749 -762 -952 -156 -154 -165
-172 -118 -218 38 -39 66 -32 142 33 121 104 243 242 492 552 284 354 348 449
502 740 99 187 114 222 117 272 l4 58 407 0 c249 0 420 4 443 10 175 49 232
283 102 414 -42 42 -100 68 -165 73 l-58 6 -6 41 c-12 70 -84 275 -136 385
-119 252 -301 491 -512 669 -251 213 -583 374 -889 433 -62 12 -119 23 -125
25 -9 2 -13 31 -13 97 0 85 -3 100 -31 156 -46 91 -121 141 -224 147 -33 2
-74 -1 -91 -6z m160 -179 c29 -29 31 -37 34 -115 l4 -84 -122 0 -122 0 4 83
c3 72 6 87 28 110 33 36 57 46 104 41 27 -3 49 -14 70 -35z m140 -2328 c-25
-32 -87 -131 -137 -220 l-92 -162 -205 -215 -205 -214 -22 26 c-53 62 -92 234
-118 512 -17 187 -24 221 -60 288 l-24 42 455 0 454 0 -46 -57z m436 53 c0 -2
-64 -105 -141 -227 -107 -169 -160 -243 -218 -302 -181 -187 -422 -363 -542
-397 l-31 -9 18 21 c11 12 99 106 197 208 l178 185 97 174 c129 231 195 298
332 335 53 14 110 20 110 12z m-1580 -2391 l-115 -115 -350 350 -350 350 115
115 115 115 350 -350 350 -350 -115 -115z"/>
<path d="M995 915 c-40 -39 -33 -69 32 -136 47 -49 62 -59 90 -59 42 0 73 30
73 72 0 25 -12 43 -58 90 -67 66 -97 74 -137 33z"/>
</g>
</svg>
